# xmcd
#
# Track frame offsets:
#	162
#	14250
#	27540
#	42987
#	58867
#	80335
#	94112
#	109380
#	120092
#	131930
#
# Disc length: 1962 seconds
#
# Revision: 0
# Processed by: cddbd v1.5PL3 Copyright (c) Steve Scherf et al.
# Submitted via: dBpowerAMP V4.0
#
DISCID=8307a80a
DTITLE=Rory Block - Rhinestones and Steel Strings
DYEAR=1983
DGENRE=Blues
TTITLE0=Future Blues
TTITLE1=I Might Find a Way
TTITLE2=El Vuelo Del Alma
TTITLE3=Lovin' Fool
TTITLE4=The Golden Vanity
TTITLE5=Dr. Make it Right
TTITLE6=No Way For me to Get Along
TTITLE7=Back to The Woods
TTITLE8=God's Gift to Women
TTITLE9=Sit Down on The Banks
EXTD=
EXTT0=
EXTT1=
EXTT2=
EXTT3=
EXTT4=
EXTT5=
EXTT6=
EXTT7=
EXTT8=
EXTT9=
PLAYORDER=
